<?xml version="1.0" encoding="UTF-8"?>
<!DOCTYPE svg PUBLIC "-//W3C//DTD SVG 1.1//EN" "http://www.w3.org/Graphics/SVG/1.1/DTD/svg11.dtd">
<!-- Creator: CorelDRAW 2021 (64-Bit) -->
<svg xmlns="http://www.w3.org/2000/svg" xml:space="preserve" width="1.11944in" height="0.90072in" version="1.1" style="shape-rendering:geometricPrecision; text-rendering:geometricPrecision; image-rendering:optimizeQuality; fill-rule:evenodd; clip-rule:evenodd"
viewBox="0 0 56.01 45.07"
 xmlns:xlink="http://www.w3.org/1999/xlink"
 xmlns:xodm="http://www.corel.com/coreldraw/odm/2003">
 <defs>
  <style type="text/css">
   <![CDATA[
    .str0 {stroke:black;stroke-width:0.84;stroke-linecap:round;stroke-miterlimit:2.61313}
    .fil0 {fill:none}
    .fil1 {fill:black;fill-rule:nonzero}
   ]]>
  </style>
 </defs>
 <g id="Layer_x0020_1">
  <metadata id="CorelCorpID_0Corel-Layer"/>
  <g id="_1482578333360">
   <g>
    <path class="fil0 str0" d="M15.71 31.98l-9.19 0c-1.8,0 -3.28,-1.48 -3.28,-3.28l0 -17.84c0,-1.8 1.48,-3.28 3.28,-3.28l11.68 -0 0 -3.26c0,-0.66 0.54,-1.2 1.2,-1.2l14.81 0c0.66,0 1.2,0.54 1.2,1.2l0 3.26m14.96 10.38l0 10.74c0,1.8 -1.48,3.28 -3.28,3.28l-9.19 0m-34.65 -15.81l11.43 0m24.93 1.84c0.39,1.62 0.38,1.66 0.38,3.29 0,7.27 -5.9,13.17 -13.17,13.17 -7.27,0 -13.17,-5.9 -13.17,-13.17 0,-7.27 5.9,-13.17 13.17,-13.17 2.42,0 3.17,0.19 5.25,1.09m3.47 12.08c0,4.82 -3.9,8.72 -8.72,8.72 -4.82,0 -8.72,-3.9 -8.72,-8.72 0,-4.82 3.9,-8.72 8.72,-8.72 1.25,0 2.44,0.26 3.51,0.74m-24.33 -7.98l0 -2.38c0,-0.28 0.23,-0.5 0.5,-0.5l6.23 0c0.28,0 0.5,0.23 0.5,0.5l0 2.38m29.96 0.99c-0.56,0.98 -5.24,0.25 -9.85,4.75 -2.6,2.54 -4.05,5.77 -4.05,10.73 0,1.61 -0.32,2.47 1.25,2.44 1.78,-2.49 1.95,-3.42 4.99,-5.76 1.91,-1.47 4.61,-2.83 7.66,-3.32 -0.01,1.45 -0.4,4.19 0.25,5.22 0.76,0.68 2.23,-1.06 3.68,-2.25l6.84 -5.84c0.32,-0.3 1.49,-1.06 1.62,-1.57 0.22,-0.91 -0.94,-1.38 -1.33,-1.71l-8.54 -7.3c-1.85,-1.41 -2.51,-2.49 -2.5,1.44 0,1.06 0,2.11 0,3.17z"/>
   </g>
   <path class="fil1" d="M4.97 43c1.63,0 2.59,-1.05 2.59,-2.58 0,-1.55 -0.95,-2.53 -2.59,-2.53l-4.97 0 0 7.07 1.23 0 0 -5.84 3.75 0c0.87,0 1.38,0.52 1.38,1.33 0,0.8 -0.52,1.34 -1.38,1.34l-2.84 0 0 1.2 2.84 0z"/>
   <polygon id="_1" class="fil1" points="10.55,44.97 10.55,37.9 9.32,37.9 9.32,44.97 "/>
   <polygon id="_2" class="fil1" points="21.51,44.97 17.67,41.29 21.2,37.9 19.59,37.9 16.93,40.51 14.24,37.9 12.54,37.9 16.06,41.29 12.27,44.97 13.87,44.97 16.81,42.08 19.78,44.97 "/>
   <path id="_3" class="fil1" d="M29.85 44.68c0.14,0.26 0.37,0.39 0.63,0.39 0.26,0 0.5,-0.13 0.64,-0.39l3.66 -6.78 -1.38 0 -2.88 5.44 -2.73 -5.44 -1.49 0 1.84 3.51 -1.07 1.93 -2.86 -5.44 -1.48 0 3.66 6.78c0.15,0.26 0.37,0.39 0.64,0.39 0.25,0 0.5,-0.13 0.63,-0.39l1.1 -2.07 1.09 2.07z"/>
   <path id="_4" class="fil1" d="M43.02 44.97l-4.08 -6.77c-0.15,-0.24 -0.32,-0.4 -0.59,-0.4 -0.27,0 -0.46,0.16 -0.6,0.4l-4.07 6.77 1.41 0 3.21 -5.43 1.58 2.65 -2.17 0 -0.58 1 3.35 0 1.06 1.78 1.49 0z"/>
   <path id="_5" class="fil1" d="M49.57 43c1.63,0 2.59,-1.05 2.59,-2.58 0,-1.55 -0.95,-2.53 -2.59,-2.53l-4.97 0 0 7.07 1.23 0 0 -5.84 3.75 0c0.87,0 1.38,0.52 1.38,1.33 0,0.8 -0.52,1.34 -1.38,1.34l-2.84 0 0 1.2 2.84 0z"/>
  </g>
 </g>
</svg>
